<?xml version="1.0" encoding="utf-8"?>
<!-- Generator: Adobe Illustrator 16.0.0, SVG Export Plug-In . SVG Version: 6.00 Build 0)  -->
<!DOCTYPE svg PUBLIC "-//W3C//DTD SVG 1.1//EN" "http://www.w3.org/Graphics/SVG/1.1/DTD/svg11.dtd">
<svg version="1.1" id="Calque_1" xmlns="http://www.w3.org/2000/svg" xmlns:xlink="http://www.w3.org/1999/xlink" x="0px" y="0px"
	 width="707.842px" height="149px" viewBox="0 0 707.842 149" enable-background="new 0 0 707.842 149" xml:space="preserve">
<g>
	<g>
		<path fill="#1A1818" d="M699.931,70.456c0.355-0.593,0.413-1.247,0.178-1.96c-0.24-0.713-0.655-1.247-1.247-1.604L671.066,49.61
			l27.973-16.926c0.593-0.357,0.98-0.891,1.158-1.604c0.178-0.713,0.028-1.363-0.446-1.96l-5.522-9.086
			c-0.832-1.426-2.021-1.721-3.563-0.891l-26.726,16.57V6.672c0-0.713-0.268-1.336-0.801-1.871
			c-0.535-0.534-1.159-0.803-1.871-0.803h-10.69c-0.713,0-1.337,0.269-1.871,0.803c-0.535,0.535-0.802,1.158-0.802,1.871v29.042
			l-26.725-16.57c-1.427-0.83-2.614-0.535-3.564,0.891l-5.523,9.265c-0.832,1.309-0.534,2.495,0.892,3.563l27.794,16.926
			l-27.794,17.104c-1.426,0.833-1.724,2.021-0.892,3.563l5.523,9.087c0.95,1.426,2.138,1.724,3.564,0.891l26.725-16.57V94.33
			c0,0.714,0.267,1.338,0.802,1.871c0.534,0.535,1.158,0.803,1.871,0.803h10.69c0.712,0,1.336-0.268,1.871-0.803
			c0.533-0.533,0.801-1.216,0.801-2.049V63.863l26.726,16.57c1.542,0.833,2.731,0.535,3.563-0.891L699.931,70.456z M546.169,83.463
			l33.854-42.227c0.592-0.83,0.712-1.483,0.355-1.96c-0.355-0.473-0.833-0.713-1.425-0.713h-17.996
			c-1.308,0-2.672,0.891-4.098,2.673L534.41,70.812L512.14,41.236c-1.426-1.782-2.792-2.673-4.099-2.673h-17.995
			c-0.596,0-1.1,0.268-1.515,0.802c-0.417,0.535-0.328,1.158,0.268,1.871l34.03,42.404l-36.168,44.898
			c-0.596,0.832-0.713,1.486-0.356,1.96c0.356,0.477,0.949,0.713,1.781,0.713h17.817c0.83,0,1.573-0.268,2.227-0.802
			c0.652-0.534,1.275-1.157,1.871-1.871L534.41,96.29l24.766,32.249c1.187,1.782,2.434,2.673,3.741,2.673h17.995
			c0.83,0,1.426-0.268,1.782-0.802c0.355-0.534,0.237-1.157-0.356-1.871L546.169,83.463z M458.332,76.87
			c0-12.944-3.416-22.806-10.244-29.575c-6.832-6.771-16.721-10.156-29.666-10.156H407.91c-12.948,0-22.836,3.385-29.665,10.156
			C371.413,54.064,368,63.926,368,76.87v14.788c0,12.828,3.444,22.627,10.334,29.398c6.887,6.77,16.748,10.155,29.576,10.155h37.059
			c1.783,0,2.674-0.891,2.674-2.673v-10.512c0-0.83-0.269-1.483-0.803-1.96c-0.535-0.473-1.158-0.713-1.871-0.713h-34.387
			c-8.195,0-14.164-1.751-17.906-5.256c-3.741-3.502-5.732-9.292-5.968-17.371h68.951c0.83,0,1.483-0.267,1.96-0.802
			c0.473-0.534,0.713-1.158,0.713-1.871V76.87z M386.708,76.87c0-8.433,1.898-14.521,5.701-18.263
			c3.8-3.741,9.858-5.612,18.173-5.612h5.167c8.552,0,14.669,1.871,18.353,5.612c3.68,3.742,5.522,9.83,5.522,18.263H386.708z
			 M336.108,6.672c0-0.83-0.268-1.484-0.802-1.96c-0.535-0.474-1.158-0.714-1.871-0.714h-13.363c-0.712,0-1.336,0.269-1.87,0.803
			c-0.535,0.535-0.802,1.158-0.802,1.871v36.347c-3.09-1.899-6.623-3.355-10.601-4.366c-3.981-1.007-8.405-1.514-13.274-1.514
			h-8.018c-12.947,0-22.836,3.385-29.665,10.156c-6.831,6.77-10.245,16.631-10.245,29.575v15.857
			c0,12.948,3.414,22.836,10.245,29.665c6.829,6.832,16.718,10.245,29.665,10.245h8.018c4.869,0,9.293-0.507,13.274-1.516
			c3.978-1.007,7.511-2.463,10.601-4.364v1.781c0,0.832,0.267,1.486,0.802,1.96c0.534,0.477,1.158,0.713,1.87,0.713h13.363
			c1.782,0,2.673-0.891,2.673-2.673V6.672z M317.4,92.728c0,8.552-1.871,14.699-5.613,18.44c-3.741,3.741-9.83,5.612-18.262,5.612
			h-5.345c-8.435,0-14.521-1.871-18.262-5.612c-3.742-3.741-5.613-9.889-5.613-18.44V76.87c0-8.433,1.871-14.521,5.613-18.263
			c3.741-3.741,9.827-5.612,18.262-5.612h5.345c8.432,0,14.521,1.871,18.262,5.612c3.742,3.742,5.613,9.83,5.613,18.263V92.728z
			 M215.666,76.87c0-12.944-3.416-22.806-10.245-29.575c-6.831-6.771-16.72-10.156-29.665-10.156h-10.868
			c-12.948,0-22.806,3.385-29.576,10.156c-6.771,6.77-10.156,16.631-10.156,29.575v15.857c0,12.948,3.385,22.836,10.156,29.665
			c6.77,6.832,16.628,10.245,29.576,10.245h10.868c12.945,0,22.834-3.413,29.665-10.245c6.829-6.829,10.245-16.717,10.245-29.665
			V76.87z M196.958,92.728c0,8.552-1.871,14.699-5.612,18.44c-3.742,3.741-9.83,5.612-18.262,5.612h-5.346
			c-8.435,0-14.52-1.871-18.262-5.612c-3.742-3.741-5.612-9.889-5.612-18.44V76.87c0-8.433,1.87-14.521,5.612-18.263
			c3.742-3.741,9.827-5.612,18.262-5.612h5.346c8.432,0,14.52,1.871,18.262,5.612c3.741,3.742,5.612,9.83,5.612,18.263V92.728z
			 M94.51,42.306c0-12.709-3.416-22.478-10.245-29.31C77.433,6.168,67.545,2.752,54.6,2.752H43.91
			c-12.712,0-22.539,3.416-29.487,10.244C7.474,19.828,4,29.597,4,42.306v50.6c0,12.948,3.474,22.807,10.423,29.576
			c6.948,6.771,16.775,10.156,29.487,10.156h8.017c1.899,0,3.502,0.355,4.811,1.068c1.306,0.713,2.375,1.604,3.207,2.673
			c0.83,1.068,1.425,2.227,1.782,3.475c0.356,1.247,0.593,2.405,0.712,3.474c0.117,0.594,0.384,1.187,0.802,1.782
			c0.415,0.593,1.038,0.892,1.871,0.892h13.363c0.712,0,1.336-0.299,1.87-0.892c0.535-0.596,0.802-1.248,0.802-1.96
			c-0.239-2.851-0.802-5.554-1.693-8.106c-0.89-2.557-2.048-4.9-3.474-7.038c6.058-2.968,10.66-7.421,13.808-13.362
			c3.146-5.938,4.722-13.186,4.722-21.737V42.306z M75.802,92.905c0,8.436-1.843,14.521-5.523,18.263
			c-3.683,3.741-9.8,5.612-18.352,5.612h-5.345c-8.435,0-14.521-1.871-18.262-5.612c-3.742-3.741-5.613-9.827-5.613-18.263v-50.6
			c0-8.196,1.899-14.224,5.702-18.084c3.8-3.859,9.858-5.791,18.173-5.791h5.345c8.552,0,14.669,1.932,18.352,5.791
			c3.68,3.86,5.523,9.888,5.523,18.084V92.905z"/>
	</g>
	<circle fill="#1A1818" cx="49" cy="98" r="5.5"/>
</g>
</svg>
