<?xml version="1.0" encoding="utf-8"?>
<!-- Generator: Adobe Illustrator 16.0.0, SVG Export Plug-In . SVG Version: 6.00 Build 0)  -->
<!DOCTYPE svg PUBLIC "-//W3C//DTD SVG 1.1//EN" "http://www.w3.org/Graphics/SVG/1.1/DTD/svg11.dtd">
<svg version="1.1" id="Calque_1" xmlns="http://www.w3.org/2000/svg" xmlns:xlink="http://www.w3.org/1999/xlink" x="0px" y="0px"
	 width="112.609px" height="137.598px" viewBox="0 0 112.609 137.598" enable-background="new 0 0 112.609 137.598"
	 xml:space="preserve">
<path fill="#3F51B5" d="M90.006,110.94c-3.451,0-6.25-2.798-6.25-6.25c0-3.451,2.799-6.25,6.25-6.25c3.453,0,6.25,2.799,6.25,6.25
	C96.256,108.143,93.459,110.94,90.006,110.94 M75.131,112.19c-4.072,0-7.375-3.302-7.375-7.375c0-4.072,3.303-7.375,7.375-7.375
	c4.074,0,7.375,3.303,7.375,7.375C82.506,108.889,79.205,112.19,75.131,112.19 M99.678,96.065
	c-6.391-28.652-25.227-47.604-49.739-61.759c-2.484-1.435-5.644-1.845-8.556-2.31c-0.988-0.157-2.756,0.732-3.129,1.594
	c-0.408,0.938,0.094,2.591,0.735,3.585c0.787,1.219,2.063,2.163,3.245,3.076c4.188,3.244,5.386,7.457,4.011,12.429
	c-0.884,3.196-1.838,6.396-3.062,9.475c-4.775,12.013-7.664,24.374-7.893,37.368c-0.074,4.292-1.031,8.568-1.59,12.851
	c-0.67,5.136-3.336,8.388-8.502,9.757c-5.768,1.527-11.499,3.255-17.111,5.27c-1.598,0.574-2.726,2.455-4.068,3.736
	c1.673,0.88,3.326,2.476,5.021,2.518c8.302,0.207,16.667,0.521,24.894-0.329c3.07-0.315,6.356-3.225,8.578-5.79
	c2.352-2.717,3.553-6.43,5.256-9.708c0.343,0.163,0.685,0.326,1.027,0.489c-2.017,4.239-4.035,8.477-6.39,13.425
	c2.134,0.697,4.269,1.77,6.505,2.066c13.775,1.829,27.523,1.713,41.256-0.691c3.785-0.662,5.824-2.733,7.107-6.101
	C101.115,116.925,101.992,106.445,99.678,96.065"/>
<path fill="#3F51B5" d="M97.881,3.324c0.031-0.223-0.023-0.407-0.164-0.558c-0.143-0.147-0.291-0.233-0.449-0.256L93.703,2.01
	C93.48,1.978,93.297,2.025,93.15,2.15s-0.234,0.281-0.26,0.472l-3.133,22.293c-0.068,0.476,0.137,0.747,0.611,0.812l3.564,0.501
	c0.16,0.023,0.326-0.018,0.502-0.122s0.281-0.268,0.312-0.489L97.881,3.324z M93.967,31.178c0.025-0.189-0.021-0.367-0.145-0.528
	c-0.123-0.163-0.279-0.258-0.469-0.284l-3.566-0.501c-0.475-0.067-0.748,0.153-0.818,0.66l-0.648,4.61
	c-0.025,0.19,0.012,0.365,0.119,0.526c0.107,0.16,0.271,0.256,0.494,0.287l3.564,0.501c0.189,0.026,0.367-0.021,0.529-0.145
	c0.162-0.122,0.258-0.278,0.283-0.469L93.967,31.178z"/>
</svg>
