<?xml version="1.0" encoding="utf-8"?>
<!-- Generator: Adobe Illustrator 16.0.0, SVG Export Plug-In . SVG Version: 6.00 Build 0)  -->
<!DOCTYPE svg PUBLIC "-//W3C//DTD SVG 1.1//EN" "http://www.w3.org/Graphics/SVG/1.1/DTD/svg11.dtd">
<svg version="1.1" id="Calque_1" xmlns="http://www.w3.org/2000/svg" xmlns:xlink="http://www.w3.org/1999/xlink" x="0px" y="0px"
	 width="335px" height="174.333px" viewBox="0 0 335 174.333" enable-background="new 0 0 335 174.333" xml:space="preserve">
<g>
	<defs>
		<rect id="SVGID_1_" x="10" y="10" width="323" height="160.605"/>
	</defs>
	<clipPath id="SVGID_2_">
		<use xlink:href="#SVGID_1_"  overflow="visible"/>
	</clipPath>
</g>
<path fill="#FFEB3B" d="M153.579,18.228c-0.203-2.904-1.431-5.08-3.681-6.527c-1.986-1.336-4.687-1.886-8.102-1.646l-1.437,0.101
	c-3.128,0.219-5.544,1.117-7.245,2.696c-1.702,1.579-2.647,3.786-2.833,6.621c-0.019,0.193,0.056,0.356,0.226,0.49
	c0.17,0.132,0.366,0.19,0.59,0.175l3.639-0.254c0.351-0.025,0.573-0.297,0.665-0.817c0.182-1.52,0.752-2.658,1.71-3.415
	c0.957-0.757,2.377-1.201,4.261-1.333c0.766-0.053,1.561-0.044,2.384,0.026c0.823,0.07,1.582,0.259,2.277,0.562
	c0.695,0.305,1.271,0.753,1.73,1.347c0.458,0.594,0.721,1.368,0.788,2.326l0.047,0.67c0.094,1.342-0.073,2.404-0.499,3.188
	c-0.426,0.784-1.298,1.398-2.614,1.843c-1.692,0.568-2.989,1.188-3.888,1.859c-0.899,0.673-1.652,1.479-2.26,2.42
	c-0.492,0.772-0.817,1.629-0.975,2.57c-0.159,0.941-0.238,1.878-0.237,2.808c-0.019,0.193,0.049,0.357,0.203,0.491
	c0.153,0.133,0.342,0.191,0.565,0.177l3.592-0.252c0.191-0.013,0.345-0.096,0.463-0.249c0.117-0.152,0.186-0.325,0.205-0.519
	c-0.016-0.674,0.031-1.27,0.139-1.79s0.324-0.985,0.648-1.394c0.325-0.407,0.78-0.775,1.367-1.105
	c0.586-0.329,1.365-0.656,2.337-0.981c1.41-0.484,2.529-1.091,3.361-1.823c0.831-0.731,1.449-1.521,1.855-2.367
	c0.406-0.847,0.65-1.722,0.731-2.626c0.081-0.902,0.093-1.77,0.035-2.6L153.579,18.228z M143.776,43.887l-0.328-4.693
	c-0.014-0.191-0.09-0.354-0.227-0.489c-0.138-0.135-0.319-0.194-0.542-0.179l-3.591,0.251c-0.192,0.013-0.354,0.097-0.488,0.251
	c-0.133,0.153-0.192,0.342-0.177,0.565l0.325,4.645c0.013,0.192,0.097,0.354,0.251,0.488c0.153,0.133,0.342,0.192,0.565,0.177
	l3.592-0.251c0.191-0.014,0.354-0.097,0.487-0.251c0.134-0.154,0.194-0.326,0.181-0.518L143.776,43.887z M113.084,13.121
	c-0.016-0.223-0.108-0.394-0.276-0.51c-0.169-0.116-0.333-0.17-0.493-0.158l-3.591,0.251c-0.224,0.016-0.394,0.1-0.511,0.252
	c-0.118,0.153-0.17,0.325-0.157,0.517l1.571,22.457c0.033,0.479,0.289,0.702,0.768,0.668l3.591-0.251
	c0.16-0.011,0.315-0.086,0.466-0.226c0.15-0.138,0.218-0.319,0.202-0.543L113.084,13.121z M115.046,41.18
	c-0.013-0.192-0.097-0.354-0.251-0.488c-0.153-0.133-0.326-0.193-0.517-0.18l-3.592,0.251c-0.479,0.034-0.7,0.306-0.664,0.815
	l0.324,4.646c0.014,0.191,0.089,0.354,0.227,0.489c0.137,0.135,0.318,0.194,0.542,0.179l3.591-0.251
	c0.192-0.013,0.354-0.097,0.488-0.251c0.133-0.153,0.194-0.326,0.18-0.518L115.046,41.18z"/>
<path fill="#FFEB3B" d="M246.514,18.789c-0.062-0.215-0.188-0.362-0.376-0.441c-0.19-0.078-0.361-0.097-0.515-0.053l-3.461,0.992
	c-0.216,0.062-0.365,0.181-0.447,0.354c-0.084,0.174-0.1,0.353-0.047,0.538l6.205,21.64c0.133,0.461,0.43,0.626,0.892,0.493
	l3.46-0.992c0.154-0.044,0.29-0.149,0.408-0.317c0.119-0.166,0.147-0.357,0.086-0.572L246.514,18.789z M254.267,45.827
	c-0.054-0.185-0.168-0.326-0.347-0.425c-0.178-0.099-0.359-0.122-0.545-0.069l-3.459,0.993c-0.463,0.132-0.623,0.445-0.481,0.937
	l1.284,4.476c0.053,0.186,0.16,0.328,0.322,0.432c0.164,0.104,0.353,0.123,0.567,0.062l3.461-0.993
	c0.185-0.053,0.326-0.168,0.425-0.346c0.1-0.178,0.123-0.36,0.069-0.544L254.267,45.827z"/>
<path fill="#FFEB3B" d="M95.987,125.939c-3.452,0-6.25-2.798-6.25-6.25c0-3.45,2.798-6.25,6.25-6.25c3.452,0,6.25,2.8,6.25,6.25
	C102.237,123.141,99.439,125.939,95.987,125.939 M81.112,127.189c-4.073,0-7.375-3.302-7.375-7.375c0-4.071,3.302-7.375,7.375-7.375
	c4.073,0,7.375,3.304,7.375,7.375C88.487,123.887,85.185,127.189,81.112,127.189 M105.658,111.064
	c-6.39-28.651-25.227-47.604-49.739-61.759c-2.484-1.434-5.643-1.844-8.556-2.309c-0.988-0.158-2.755,0.731-3.129,1.593
	c-0.407,0.939,0.095,2.591,0.736,3.585c0.787,1.219,2.064,2.163,3.245,3.077c4.187,3.244,5.386,7.457,4.011,12.428
	c-0.884,3.197-1.838,6.396-3.061,9.476c-4.776,12.013-7.665,24.374-7.893,37.367c-0.074,4.292-1.031,8.568-1.59,12.852
	c-0.67,5.135-3.336,8.387-8.502,9.756c-5.767,1.528-11.499,3.255-17.112,5.27c-1.597,0.574-2.725,2.455-4.068,3.736
	c1.673,0.88,3.327,2.477,5.021,2.519c8.301,0.207,16.667,0.52,24.894-0.329c3.069-0.316,6.356-3.226,8.577-5.79
	c2.352-2.718,3.553-6.431,5.257-9.708c0.342,0.163,0.684,0.326,1.027,0.488c-2.017,4.239-4.035,8.478-6.39,13.426
	c2.134,0.696,4.269,1.769,6.505,2.065c13.775,1.829,27.523,1.713,41.255-0.69c3.785-0.662,5.824-2.734,7.107-6.102
	C107.095,131.923,107.972,121.445,105.658,111.064"/>
<path fill="#FFEB3B" d="M247.013,125.939c3.452,0,6.25-2.798,6.25-6.25c0-3.45-2.798-6.25-6.25-6.25s-6.25,2.8-6.25,6.25
	C240.763,123.141,243.561,125.939,247.013,125.939 M261.888,127.189c4.073,0,7.375-3.302,7.375-7.375
	c0-4.071-3.302-7.375-7.375-7.375s-7.375,3.304-7.375,7.375C254.513,123.887,257.814,127.189,261.888,127.189 M237.342,111.064
	c6.391-28.651,25.227-47.604,49.738-61.759c2.484-1.434,5.644-1.844,8.557-2.309c0.988-0.158,2.755,0.731,3.129,1.593
	c0.407,0.939-0.095,2.591-0.736,3.585c-0.787,1.219-2.063,2.163-3.244,3.077c-4.188,3.244-5.387,7.457-4.012,12.428
	c0.885,3.197,1.838,6.396,3.062,9.476c4.776,12.013,7.665,24.374,7.893,37.367c0.074,4.292,1.031,8.568,1.591,12.852
	c0.67,5.135,3.336,8.387,8.502,9.756c5.767,1.528,11.498,3.255,17.111,5.27c1.598,0.574,2.725,2.455,4.068,3.736
	c-1.674,0.88-3.327,2.477-5.021,2.519c-8.301,0.207-16.666,0.52-24.894-0.329c-3.069-0.316-6.356-3.226-8.577-5.79
	c-2.352-2.718-3.553-6.431-5.257-9.708c-0.343,0.163-0.685,0.326-1.027,0.488c2.017,4.239,4.035,8.478,6.39,13.426
	c-2.133,0.696-4.269,1.769-6.504,2.065c-13.775,1.829-27.523,1.713-41.256-0.69c-3.785-0.662-5.824-2.734-7.107-6.102
	C235.904,131.923,235.027,121.445,237.342,111.064"/>
<path fill="#FFEB3B" d="M172.273,143.674c-3.857,0-6.983-3.124-6.983-6.978s3.126-6.978,6.983-6.978
	c3.856,0,6.983,3.124,6.983,6.978S176.13,143.674,172.273,143.674 M155.652,145.07c-4.551,0-8.24-3.687-8.24-8.234
	c0-4.547,3.689-8.232,8.24-8.232c4.552,0,8.241,3.686,8.241,8.232C163.893,141.383,160.204,145.07,155.652,145.07 M183.079,127.067
	c-7.14-31.987-28.187-53.145-55.577-68.949c-2.775-1.601-6.305-2.058-9.56-2.577c-1.104-0.177-3.078,0.817-3.496,1.778
	c-0.455,1.048,0.106,2.892,0.823,4.003c0.878,1.36,2.305,2.414,3.625,3.435c4.679,3.621,6.018,8.325,4.482,13.875
	c-0.989,3.568-2.053,7.141-3.421,10.577c-5.336,13.412-8.564,27.212-8.819,41.72c-0.083,4.791-1.152,9.564-1.776,14.347
	c-0.749,5.733-3.728,9.363-9.5,10.891c-6.444,1.706-12.849,3.635-19.121,5.885c-1.784,0.64-3.045,2.739-4.546,4.171
	c1.87,0.981,3.718,2.764,5.611,2.811c9.275,0.232,18.624,0.58,27.816-0.367c3.429-0.353,7.102-3.601,9.584-6.465
	c2.627-3.033,3.969-7.178,5.873-10.837c0.382,0.182,0.765,0.364,1.148,0.546c-2.254,4.732-4.509,9.464-7.141,14.987
	c2.386,0.779,4.771,1.975,7.27,2.306c15.391,2.042,30.753,1.913,46.097-0.77c4.229-0.74,6.508-3.054,7.939-6.812
	C184.684,150.355,185.665,138.655,183.079,127.067"/>
</svg>
