<?xml version="1.0" encoding="utf-8"?>
<!-- Generator: Adobe Illustrator 16.0.0, SVG Export Plug-In . SVG Version: 6.00 Build 0)  -->
<!DOCTYPE svg PUBLIC "-//W3C//DTD SVG 1.1//EN" "http://www.w3.org/Graphics/SVG/1.1/DTD/svg11.dtd">
<svg version="1.1" id="Calque_1" xmlns="http://www.w3.org/2000/svg" xmlns:xlink="http://www.w3.org/1999/xlink" x="0px" y="0px"
	 width="155px" height="181px" viewBox="0 0 155 181" enable-background="new 0 0 155 181" xml:space="preserve">
<path fill="#3300FF" d="M146.421,37.435c-0.106-0.313-0.289-0.55-0.55-0.706l-12.256-7.621l12.333-7.462
	c0.262-0.157,0.433-0.393,0.511-0.707s0.013-0.601-0.196-0.864l-2.435-4.006c-0.367-0.629-1.128-0.759-1.808-0.393L130,22.98V10.177
	c0-0.313,0.119-0.588-0.117-0.824C129.648,9.118,129.609,9,129.295,9h-4.713c-0.314,0-0.791,0.118-1.026,0.353
	C123.319,9.589,123,9.863,123,10.177v12.805l-11.581-7.306c-0.629-0.365-1.051-0.236-1.47,0.393l-2.385,4.085
	c-0.366,0.577-0.21,1.101,0.419,1.571l12.267,7.463l-12.248,7.541c-0.629,0.367-0.756,0.891-0.39,1.57l2.437,4.007
	c0.419,0.628,0.741,0.76,1.37,0.393L123,35.393v13.433c0,0.314,0.319,0.588,0.556,0.823c0.235,0.235,0.712,0.352,1.026,0.352h4.713
	c0.314,0,0.353-0.116,0.588-0.352S130,49.113,130,48.747V35.393l12.02,7.306c0.68,0.367,1.323,0.235,1.69-0.394l2.573-4.006
	C146.439,38.038,146.523,37.749,146.421,37.435z"/>
<path fill="#3300FF" d="M101,65.31v50.6c0,8.55-1.82,15.8-4.97,21.73c-3.14,5.94-7.99,10.4-14.05,13.37
	c1.43,2.13,2.58,4.48,3.47,7.03c0.9,2.56,1.46,5.26,1.7,8.11c0,0.71-0.27,1.36-0.8,1.96c-0.54,0.59-1.16,0.89-1.87,0.89H71.11
	c-0.83,0-1.45-0.29-1.87-0.88c-0.42-0.59-0.68-1.18-0.8-1.77c-0.12-1.07-0.36-2.2-0.71-3.45c-0.36-1.25-0.96-2.36-1.79-3.43
	c-0.83-1.07-1.9-1.87-3.2-2.58c-1.31-0.72-2.91-0.89-4.81-0.89h-8.02c-12.71,0-22.54-3.57-29.49-10.34
	C13.47,138.89,10,128.85,10,115.91v-50.6c0-12.71,3.47-22.36,10.42-29.19C27.37,29.29,37.2,26,49.91,26H60.6
	c12.94,0,23.08,3.29,29.91,10.12C97.34,42.95,101,52.6,101,65.31z M82,115.9V65.3c0-8.19-1.94-14.43-5.62-18.29
	C72.7,43.15,66.48,41,57.93,41h-5.35c-8.31,0-14.22,2.15-18.02,6.01C30.75,50.87,29,57.11,29,65.3v50.6
	c0,8.44,1.72,14.64,5.47,18.38c3.74,3.74,9.68,5.72,18.11,5.72h5.35c8.55,0,14.77-1.98,18.45-5.72C80.06,130.54,82,124.34,82,115.9z
	"/>
<g>
</g>
<circle fill="#3300FF" cx="55" cy="121" r="5.5"/>
</svg>
